<svg height="20" viewBox="0 0 20 20" width="20" xmlns="http://www.w3.org/2000/svg" xmlns:xlink="http://www.w3.org/1999/xlink"><filter id="a"><feColorMatrix in="SourceGraphic" values="0 0 0 0 0.000000 0 0 0 0 0.000000 0 0 0 0 0.000000 0 0 0 0.500000 0"/></filter><g fill="none" fill-rule="evenodd" filter="url(#a)" transform="translate(0 -2)"><path d="m12.5 14.5v5h-10c-.46 0-.833-.373-.833-.833v-9.167h-.834c-.46 0-.833-.373-.833-.833v-1.81c0-.442.176-.866.488-1.178l1.524-1.524c.312-.313.736-.488 1.178-.488h11.953c.442 0 .866.175 1.178.488l1.524 1.524c.313.312.488.736.488 1.178v1.81c0 .46-.373.833-.833.833h-.833v3.476l-1.667-1.666v-1.81h-11.667v8.333h2.5v-3.333c0-1.84 1.493-3.333 3.334-3.333 1.84 0 3.333 1.492 3.333 3.333zm-10.833-6.667h15v-.976l-1.524-1.524h-11.953l-1.523 1.524zm5.833 10h3.333v-3.333c0-.92-.746-1.667-1.666-1.667s-1.667.747-1.667 1.667zm9.976.834.953 2.164c.186.421-.005.913-.426 1.098-.422.186-.913-.005-1.099-.426l-.988-2.244-1.46 1.592c-.062.068-.167.072-.235.01-.035-.032-.054-.076-.054-.123v-7.502c0-.092.074-.167.166-.167.045 0 .087.018.118.049l5.264 5.264c.066.065.066.17 0 .236-.03.031-.073.049-.117.049z" fill="#5b5b5e" fill-rule="nonzero"/></g></svg>