<svg xmlns="http://www.w3.org/2000/svg" xmlns:xlink="http://www.w3.org/1999/xlink" width="20" height="24" viewBox="0 0 20 24">
    <defs>
        <filter id="prefix__a">
            <feColorMatrix in="SourceGraphic" values="0 0 0 0 0.000000 0 0 0 0 0.000000 0 0 0 0 0.000000 0 0 0 0.500000 0"/>
        </filter>
        <filter id="prefix__b">
            <feColorMatrix in="SourceGraphic" values="0 0 0 0 0.356863 0 0 0 0 0.356863 0 0 0 0 0.368627 0 0 0 1.000000 0"/>
        </filter>
        <path id="prefix__c" d="M10.875 2.5c.897 0 1.625.728 1.625 1.625V5h2.319c.643 0 1.252.286 1.664.78l3.015 3.617c.324.39.502.88.502 1.387v3.424c0 .898-.728 1.625-1.625 1.625h-1.017c-.344.971-1.27 1.667-2.358 1.667s-2.014-.696-2.358-1.666H7.358C7.014 16.804 6.088 17.5 5 17.5s-2.014-.696-2.358-1.666H1.625C.728 15.833 0 15.105 0 14.207V4.125C0 3.228.728 2.5 1.625 2.5zM5 14.167c-.46 0-.833.373-.833.833 0 .46.373.833.833.833.46 0 .833-.373.833-.833 0-.46-.373-.833-.833-.833zm10 0c-.46 0-.833.373-.833.833 0 .46.373.833.833.833.46 0 .833-.373.833-.833 0-.46-.373-.833-.833-.833zm-4.167-10H1.667v10h.975C2.986 13.195 3.912 12.5 5 12.5s2.014.696 2.358 1.666h3.475v-10zm4.25 2.5H12.5v7.5h.142c.344-.971 1.27-1.667 2.358-1.667s2.014.696 2.358 1.666h.975v-3.583l-3.25-3.916z"/>
    </defs>
    <g fill="none" fill-rule="evenodd" filter="url(#prefix__a)">
        <g filter="url(#prefix__b)">
            <g transform="translate(0 2)">
                <path fill-rule="nonzero" d="M0 0H20V20H0z"/>
                <use fill="#000" fill-rule="nonzero" xlink:href="#prefix__c"/>
            </g>
        </g>
    </g>
</svg>
