<svg height="23" viewBox="0 0 24 23" width="24" xmlns="http://www.w3.org/2000/svg"><path d="m15.624 0c3.71-.035 6.746 2.944 6.782 6.653v8.957c0 3.71-3.008 6.717-6.718 6.717h-8.956c-3.71 0-6.718-3.007-6.718-6.717v-8.807c0-3.685 2.969-6.683 6.654-6.717zm.022 2.24-8.957.085c-2.456.023-4.436 2.021-4.436 4.478v8.807c0 2.473 2.005 4.478 4.479 4.478h8.956c2.474 0 4.479-2.005 4.479-4.478v-8.935c-.024-2.473-2.048-4.46-4.521-4.436zm-4.436 3.153c3.169 0 5.738 2.569 5.738 5.737 0 3.17-2.569 5.738-5.738 5.738s-5.738-2.569-5.738-5.738c0-3.168 2.57-5.737 5.738-5.737zm0 2.239c-1.932 0-3.499 1.566-3.499 3.498 0 1.933 1.567 3.5 3.5 3.5 1.931 0 3.498-1.567 3.498-3.5 0-1.932-1.567-3.498-3.499-3.498zm5.814-3.645c.721 0 1.306.585 1.306 1.306 0 .722-.585 1.306-1.306 1.306s-1.306-.584-1.306-1.306c0-.721.585-1.306 1.306-1.306z" fill="#d59283" fill-rule="evenodd"/></svg>