<svg xmlns="http://www.w3.org/2000/svg" width="20" height="20" viewBox="0 0 20 20">
    <defs>
        <filter id="prefix__a">
            <feColorMatrix in="SourceGraphic" values="0 0 0 0 0.000000 0 0 0 0 0.000000 0 0 0 0 0.000000 0 0 0 0.500000 0"/>
        </filter>
    </defs>
    <g fill="none" fill-rule="evenodd" filter="url(#prefix__a)" transform="translate(0 -1)">
        <path fill="#5B5B5E" fill-rule="nonzero" d="M11.25 3.5c.69 0 1.25.56 1.25 1.25V6h2.553c.494 0 .963.22 1.28.6l3.28 3.936c.25.3.387.678.387 1.067v3.98c0 .69-.56 1.25-1.25 1.25h-1.392c-.344.971-1.27 1.667-2.358 1.667s-2.014-.696-2.358-1.666H7.358C7.014 17.804 6.088 18.5 5 18.5s-2.014-.696-2.358-1.666H1.25c-.69 0-1.25-.56-1.25-1.25v-1.251l.006-.104c.052-.411.402-.729.827-.729.425 0 .776.318.827.729l.006.104v.834h.976C2.986 14.195 3.912 13.5 5 13.5s2.014.696 2.358 1.666h3.475v-10H4.166l-.104-.006c-.41-.051-.729-.402-.729-.827 0-.46.373-.833.834-.833zM5 15.167c-.46 0-.833.373-.833.833 0 .46.373.833.833.833.46 0 .833-.373.833-.833 0-.46-.373-.833-.833-.833zm10 0c-.46 0-.833.373-.833.833 0 .46.373.833.833.833.46 0 .833-.373.833-.833 0-.46-.373-.833-.833-.833zm.083-7.5H12.5v7.5h.142c.344-.971 1.27-1.667 2.358-1.667s2.014.696 2.358 1.666h.975v-3.583l-3.25-3.916zm-8.416 2.5c.46 0 .833.373.833.833 0 .46-.373.833-.833.833H.833C.373 11.833 0 11.46 0 11c0-.46.373-.833.833-.833h5.834zm1.666-3.334c.46 0 .834.373.834.834 0 .46-.373.833-.834.833H2.5c-.46 0-.833-.373-.833-.833 0-.46.373-.834.833-.834h5.833z"/>
    </g>
</svg>
