<svg height="19" viewBox="0 0 24 19" width="24" xmlns="http://www.w3.org/2000/svg"><path d="m.014 16.26c2.445.196 4.658-.38 6.63-1.897-.16-.058-.299-.05-.43-.073-1.775-.328-3.027-1.312-3.696-3.004-.015-.037-.03-.08-.037-.117 0-.007.008-.022.008-.037.625.044 1.251.066 1.87-.109-1.026-.299-1.9-.831-2.562-1.677s-.939-1.831-.99-2.91c.634.32 1.281.517 1.987.547-.029-.066-.08-.095-.124-.124-.72-.62-1.273-1.357-1.586-2.261-.364-1.036-.306-2.071.066-3.093.08-.226.181-.452.298-.685 1.179 1.459 2.62 2.567 4.272 3.406 1.651.831 3.405 1.29 5.254 1.422-.022-.19-.051-.357-.066-.525-.102-1.152.11-2.232.786-3.187.422-.598.982-1.043 1.623-1.4.786-.445 1.63-.577 2.518-.526 1.113.066 2.074.482 2.889 1.24.036.03.072.066.102.095.05.058.101.073.181.051.961-.211 1.885-.518 2.722-1.057.015-.008.036-.015.087-.044-.167.532-.422.992-.735 1.415-.313.43-.69.795-1.128 1.108.845-.102 1.667-.299 2.453-.67-.007.065-.044.101-.066.138-.225.335-.487.642-.764.94-.415.446-.858.861-1.324 1.248-.066.05-.102.102-.095.197.037.496 0 .984-.05 1.473-.073.788-.219 1.568-.423 2.334-.895 3.296-2.743 5.907-5.574 7.818-.553.372-1.164.656-1.776.912-1.07.452-2.183.765-3.333.948-.858.138-1.717.19-2.583.153-2.278-.095-4.373-.78-6.31-1.977l-.086-.065c-.008.007-.008 0-.008-.007z" fill="#55adee" fill-rule="evenodd"/></svg>